<?xml version="1.0" standalone="no"?>
<!DOCTYPE svg PUBLIC "-//W3C//DTD SVG 20010904//EN"
 "http://www.w3.org/TR/2001/REC-SVG-20010904/DTD/svg10.dtd">
<svg version="1.0" xmlns="http://www.w3.org/2000/svg"
 width="260.000000pt" height="260.000000pt" viewBox="0 0 260.000000 260.000000"
 preserveAspectRatio="xMidYMid meet">
<metadata>
Created by potrace 1.14, written by Peter Selinger 2001-2017
</metadata>
<g transform="translate(0.000000,260.000000) scale(0.100000,-0.100000)"
fill="#000000" stroke="none">
<path d="M970 2126 c-185 -39 -285 -99 -410 -247 -115 -135 -115 -135 -96
-155 20 -19 23 -40 11 -85 -6 -24 -1 -28 74 -62 128 -59 220 -77 421 -84 478
-16 935 69 1008 188 21 33 9 33 -42 0 -56 -35 -128 -53 -340 -86 -484 -75
-668 -71 -856 16 -85 40 -100 54 -100 99 0 29 16 59 85 157 69 99 92 124 127
140 61 29 103 41 183 53 88 14 487 14 586 0 178 -25 293 -72 359 -148 40 -44
41 -45 34 -17 -23 97 -167 183 -372 221 -120 23 -579 29 -672 10z"/>
<path d="M1505 1797 c-56 -19 -93 -45 -111 -78 -16 -32 -19 -79 -4 -79 6 0 10
4 10 10 0 21 67 84 109 103 76 33 268 17 338 -29 30 -19 36 -18 23 5 -5 11
-35 32 -66 47 -48 23 -71 28 -158 31 -65 2 -115 -2 -141 -10z"/>
<path d="M1995 1750 c-3 -5 5 -15 19 -22 14 -6 26 -15 26 -19 0 -5 14 -30 30
-56 103 -162 -62 -286 -484 -364 -141 -26 -421 -36 -572 -20 -120 12 -314 51
-383 75 -24 9 -49 16 -55 16 -26 -1 48 -33 167 -71 101 -32 130 -45 136 -62
29 -75 189 -117 441 -117 271 0 410 45 410 134 0 16 12 21 73 32 34 6 37 4 37
-17 0 -13 6 -46 13 -74 11 -43 18 -52 48 -62 19 -7 50 -12 70 -12 32 -1 37 3
57 44 12 25 22 47 22 49 0 2 -25 6 -56 9 -58 6 -139 48 -132 68 2 6 27 19 56
29 77 27 179 87 222 130 67 67 59 136 -23 214 l-52 49 55 -28 c144 -72 272
-170 335 -256 57 -78 72 -134 56 -213 -71 -347 -582 -579 -1241 -563 -147 3
-222 10 -304 26 -110 22 -264 67 -279 80 -4 4 -1 27 8 50 8 24 15 58 15 75
l-1 31 -22 -39 c-12 -21 -31 -50 -43 -64 l-20 -24 -45 22 c-150 76 -306 204
-354 292 -27 48 -30 62 -30 143 0 80 3 97 31 155 33 67 71 114 117 145 15 9
27 21 27 25 0 4 -30 13 -67 20 l-68 12 -71 -74 c-94 -99 -128 -167 -133 -272
-4 -95 8 -139 62 -231 23 -38 52 -105 65 -149 50 -174 147 -317 236 -351 64
-25 112 -9 170 56 25 28 46 54 46 58 0 3 4 12 8 19 7 10 35 5 129 -22 184 -53
306 -68 543 -68 224 0 374 16 532 56 84 22 94 23 103 9 34 -54 97 -121 131
-140 76 -44 151 -24 236 64 90 94 136 195 157 345 7 49 18 79 41 113 53 77 73
147 68 240 -5 101 -35 160 -133 264 -84 88 -153 137 -288 202 -103 49 -131 57
-142 39z m-674 -540 c52 -28 -10 -82 -74 -63 -58 16 -43 73 20 73 19 0 43 -5
54 -10z m1009 -420 c-11 -29 -34 -72 -51 -96 -30 -45 -95 -101 -105 -91 -3 3
4 23 15 45 11 22 23 57 27 79 6 33 15 44 68 79 33 22 62 39 64 38 1 -1 -7 -25
-18 -54z"/>
<path d="M439 1389 c-26 -36 -35 -103 -25 -183 7 -54 8 -55 53 -70 93 -32 122
-21 137 50 7 31 7 31 -41 38 -95 12 -117 55 -61 113 l33 34 -30 24 c-17 13
-33 24 -37 25 -4 0 -17 -14 -29 -31z"/>
</g>
</svg>
